<svg width="31" height="31" viewBox="0 0 31 31" fill="none" xmlns="http://www.w3.org/2000/svg">
<path d="M7.26562 12.291H4.87287C5.27708 6.78125 9.88888 2.42188 15.5 2.42188C19.9401 2.42188 23.9579 5.21853 25.4978 9.38107C25.7298 10.0083 26.4263 10.3286 27.0537 10.0967C27.6809 9.8646 28.0013 9.16807 27.7693 8.5408C26.8515 6.05983 25.221 3.93682 23.0543 2.40123C20.8376 0.83034 18.2254 0 15.5 0C12.0067 0 8.7225 1.36037 6.25237 3.8305C3.81445 6.26842 2.45851 9.49944 2.42351 12.9417C0.976318 13.7803 0 15.3452 0 17.1348V21.252C0 23.9228 2.17291 26.0957 4.84375 26.0957H7.26562C7.93443 26.0957 8.47656 25.5536 8.47656 24.8848V13.502C8.47656 12.8332 7.93443 12.291 7.26562 12.291ZM6.05469 23.6738H4.84375C3.50833 23.6738 2.42188 22.5874 2.42188 21.252V17.1348C2.42188 15.7993 3.50833 14.7129 4.84375 14.7129H6.05469V23.6738Z" fill="#1147AB"/>
<path d="M26.1562 12.291H23.7344C23.0656 12.291 22.5234 12.8332 22.5234 13.502V21.7969V24.8848V26.1562C22.5234 26.824 21.9802 27.3672 21.3125 27.3672H17.6191V27.4056C17.2061 26.6607 16.4121 26.1562 15.5 26.1562C14.1625 26.1562 13.0781 27.2406 13.0781 28.5781C13.0781 29.9157 14.1625 31 15.5 31C16.4121 31 17.2061 30.4956 17.6191 29.7507V29.7891H21.3125C23.3156 29.7891 24.9453 28.1594 24.9453 26.1562V26.0957H26.1562C28.8271 26.0957 31 23.9228 31 21.252V17.1348C31 14.4639 28.8271 12.291 26.1562 12.291ZM28.5781 21.252C28.5781 22.5874 27.4917 23.6738 26.1562 23.6738H24.9453V21.7969V14.7129H26.1562C27.4917 14.7129 28.5781 15.7993 28.5781 17.1348V21.252Z" fill="#1147AB"/>
</svg>
