<svg width="42" height="41" viewBox="0 0 42 41" fill="none" xmlns="http://www.w3.org/2000/svg">
<path fill-rule="evenodd" clip-rule="evenodd" d="M21.2122 0C32.534 0 41.7122 9.17816 41.7122 20.5C41.7122 31.8218 32.534 41 21.2122 41C9.89032 41 0.712158 31.8218 0.712158 20.5C0.712158 9.17816 9.89032 0 21.2122 0ZM14.689 12.8857H14.5231V14.3898H14.689C15.0323 14.3898 15.3399 14.6866 15.3399 15.028V26.7028C15.3399 27.0673 15.0323 27.341 14.689 27.341H14.5231V28.8464H14.689C15.9015 28.8464 16.8727 27.8885 16.8727 26.7028V15.028C16.8727 13.8437 15.9015 12.8857 14.689 12.8857ZM13.3361 12.8857H13.1574C11.9692 12.8857 10.9622 13.8437 10.9622 15.028V26.7028C10.9622 27.8885 11.9692 28.8464 13.1574 28.8464H13.3361V27.341H13.1574C12.7988 27.341 12.5065 27.0673 12.5065 26.7028V15.028C12.5065 14.6866 12.7988 14.3898 13.1574 14.3898H13.3361V12.8857ZM22.5637 22.0971H20.9811L22.7935 28.8464H24.3748L22.5637 22.0971ZM24.4016 12.8857H22.819L20.7259 19.5429H18.62V28.8464H20.1515V20.9345H22.2702L22.0022 19.9983L24.4016 12.8857ZM28.3198 19.9983V22.3465L28.4092 22.4616C28.7908 22.8939 28.9069 23.4196 28.9069 23.9888V26.7028C28.9069 27.0673 28.5993 27.341 28.2547 27.341H27.1839C26.8393 27.341 26.533 27.0673 26.533 26.7028V24.2625H25.0015V26.7028C25.0015 27.8885 25.9714 28.8464 27.1839 28.8464H28.2547C29.443 28.8464 30.4372 27.8885 30.4372 26.7028V23.9888C30.4372 23.0999 30.2202 22.257 29.6472 21.574L28.3198 19.9983ZM28.2547 12.8857H27.1839C25.9957 12.8857 25.0015 13.8654 25.0015 15.028V16.8762C25.0015 17.7638 25.2057 18.6093 25.7672 19.291L27.1329 20.9345V18.5389L27.018 18.4033C26.6479 17.9467 26.533 17.4454 26.533 16.8762V15.028C26.533 14.6866 26.8393 14.3898 27.1839 14.3898H28.2547C28.5993 14.3898 28.9069 14.6866 28.9069 15.028V16.8071H30.4372V15.028C30.4372 13.8437 29.443 12.8857 28.2547 12.8857ZM20.1515 12.8857H18.62V18.379H20.1515V12.8857Z" fill="white"/>
</svg>
